<svg version="1.1" xmlns="http://www.w3.org/2000/svg" xmlns:xlink="http://www.w3.org/1999/xlink" xmlns:a="http://ns.adobe.com/AdobeSVGViewerExtensions/3.0/" x="0px" y="0px" width="1530px" height="199px" viewBox="0 0 1530 190" enable-background="new 0 0 1530 190" xml:space="preserve">
				<style>
					@font-face
					{
					font-family: 'Elephant-Italic';
					src: url(ELEPHNTI.TTF);
					}
					@font-face
					{
					font-family: 'Elephant-Regular';
					src: url(ELEPHNT.ttf);
					}
tpan{
font-size:30px;
}
				</style>
				<a id="logo" xlink:href="/">
					<text transform="matrix(1 0 0 1 105.248 101.2256)" font-family="Elephant-Italic" font-size="72.0144">Simple Law</text>
				</a>
				<g>
					<a id="lawsbystate" xlink:href="#">
						<text transform="matrix(1 0 0 1 636.5557 80.6348)">
						<!--<tspan x="0" y="0" font-family="'Elephant-Regular'" font-size="15.8449">Laws By </tspan>	19.014 -->
							<tspan x="15.464" y="13" font-family="'Elephant-Regular'" font-size="15.8449">States</tspan>
						</text>
					</a>
				</g>
				<line fill="none" stroke="#000000" stroke-width="0.5674" stroke-miterlimit="10" x1="727.051" y1="56.46" x2="727.051" y2="104.81"/>
				<line fill="none" stroke="#000000" stroke-width="0.5674" stroke-miterlimit="10" x1="835.948" y1="56.46" x2="835.948" y2="104.81"/>
				<line fill="none" stroke="#000000" stroke-width="0.5674" stroke-miterlimit="10" x1="922.613" y1="56.46" x2="922.613" y2="104.81"/>
				<g>
					<a id="lawsbycatagory" xlink:href="#">
						<text transform="matrix(1 0 0 1 741.1563 80.6348)">
							<!--<tspan x="0" y="0" font-family="'Elephant-Regular'" font-size="15.8449">Laws By </tspan>-->
							<tspan x="0.808" y="13" font-family="'Elephant-Regular'" font-size="15.8449"><a id="categories" xlink:href="categories.html">Categories</a></tspan>
						</text>
					</a>
				</g>
				<g>
					<a id="about" xlink:href="about.html">
						<text transform="matrix(1 0 0 1 856.2598 93.5283)" font-family="'Elephant-Regular'" font-size="15.8449">About</text>
					</a>
				</g>
				<a xlink:href="#">
					<text transform="matrix(1 0 0 1 935.1836 93.5283)" font-family="'Elephant-Regular'" font-size="15.8449">Subscribe</text>
				</a>
				<line fill="none" stroke="#000000" stroke-width="1.0713" stroke-miterlimit="10" x1="105.248" y1="112.596" x2="1140.694" y2="112.596"/>
				<text transform="matrix(1.1429 0 0 1 107.7373 136.9824)" font-family="'Elephant-Regular'" font-size="13.8643">The Laws That Affect You</text>
			</svg>